<?xml version="1.0" encoding="utf-8"?>
<!-- Generator: Adobe Illustrator 22.0.0, SVG Export Plug-In . SVG Version: 6.00 Build 0)  -->
<svg version="1.1" id="Layer_1" xmlns="http://www.w3.org/2000/svg" xmlns:xlink="http://www.w3.org/1999/xlink" x="0px" y="0px"
	 viewBox="0 0 469.6 54.4" style="enable-background:new 0 0 469.6 54.4;" xml:space="preserve">
<style type="text/css">
	.st0{fill:#B1B7B6;}
	.st1{fill:#EE4223;}
</style>
<g>
	<path class="st0" d="M0.8,44.6c-0.5,0-0.7-0.2-0.7-0.7V10.7c0-0.5,0.2-0.7,0.7-0.7h18c0.2,0,0.3,0,0.5,0.2s0.2,0.3,0.2,0.5v5.8
		c0,0.2,0,0.3-0.2,0.5c0,0.2-0.2,0.2-0.3,0.2H7.5v6.3h8.7c0.5,0,0.7,0.2,0.7,0.7V30c0,0.2,0,0.3-0.2,0.5s-0.2,0.2-0.3,0.2H7.5v13
		c0,0.5-0.2,0.7-0.7,0.7h-6V44.6z"/>
	<path class="st0" d="M24.2,44.6c-0.2,0-0.3,0-0.5-0.2s-0.2-0.3-0.2-0.5V10.5c0-0.2,0-0.3,0.2-0.3C23.9,10,24,10,24.2,10H30
		c0.2,0,0.3,0,0.5,0.2c0.2,0,0.3,0.2,0.3,0.3v26.7h13.3c0.2,0,0.3,0,0.5,0.2s0.2,0.3,0.2,0.5v5.8c0,0.2,0,0.3-0.2,0.5
		s-0.3,0.2-0.5,0.2h-20L24.2,44.6L24.2,44.6z"/>
	<path class="st0" d="M49.4,44.6c-0.5,0-0.7-0.2-0.7-0.7V10.7c0-0.5,0.2-0.7,0.7-0.7h18c0.2,0,0.3,0,0.5,0.2s0.2,0.3,0.2,0.5v5.8
		c0,0.2,0,0.3-0.2,0.5s-0.3,0.2-0.5,0.2H55.9v6.3h8.7c0.5,0,0.7,0.2,0.7,0.7V30c0,0.5-0.2,0.7-0.7,0.7h-8.7V37h11.5
		c0.2,0,0.3,0,0.5,0.2s0.2,0.3,0.2,0.5v5.9c0,0.2,0,0.3-0.2,0.5s-0.3,0.2-0.5,0.2h-18C49.4,44.3,49.4,44.6,49.4,44.6z"/>
	<path class="st0" d="M89.7,44.6c-0.2,0-0.3,0-0.5-0.2s-0.3-0.3-0.3-0.5l-5-9.6l-4.8,9.6c-0.2,0.2-0.2,0.3-0.3,0.5
		c-0.2,0.2-0.4,0.2-0.5,0.2H72c-0.2,0-0.3,0-0.5-0.2s-0.2-0.3,0-0.7l8.6-17.6l-7.6-15.2c-0.2-0.3-0.2-0.5,0-0.7S72.8,10,73,10h6.1
		c0.2,0,0.3,0,0.5,0.2s0.2,0.3,0.3,0.5l3.9,7.4l4.3-7.4c0.2-0.2,0.2-0.3,0.3-0.5c0.2-0.2,0.2-0.2,0.5-0.2h6.2c0.2,0,0.3,0,0.5,0.2
		s0.2,0.3,0,0.7l-7.5,15.2l8.6,17.6c0.2,0.3,0.2,0.5,0,0.7s-0.3,0.3-0.5,0.3L89.7,44.6C89.7,44.7,89.7,44.6,89.7,44.6z"/>
	<path class="st0" d="M101.2,44.6c-0.5,0-0.7-0.2-0.7-0.7V10.7c0-0.5,0.2-0.7,0.7-0.7h5.8c0.5,0,0.7,0.2,0.7,0.7v33.2
		c0,0.5-0.2,0.7-0.7,0.7C107,44.6,101.2,44.6,101.2,44.6z"/>
	<path class="st0" d="M126.7,44.6c-0.2,0-0.3,0-0.5-0.2s-0.3-0.3-0.3-0.5l-6-16.6v16.6c0,0.2,0,0.3-0.2,0.5s-0.3,0.2-0.5,0.2h-5.8
		c-0.2,0-0.3,0-0.5-0.2s-0.2-0.3-0.2-0.5V10.7c0-0.5,0.2-0.7,0.7-0.7h7.2c0.3,0,0.5,0.2,0.7,0.7l6.5,19l0.2,0.5V10.7
		c0-0.2,0-0.3,0.2-0.5c0.3-0.2,0.3-0.2,0.5-0.2h5.8c0.7,0,0.9,0.2,0.9,0.7v33.2c0,0.2,0,0.3-0.2,0.5s-0.3,0.2-0.5,0.2
		C134.7,44.6,126.7,44.6,126.7,44.6z"/>
	<path class="st0" d="M158.5,44.1c-0.3,0.3-0.5,0.5-0.9,0.5s-0.3,0-0.5,0h-12.8c-0.5,0-0.9-0.2-1.4-0.5l-2.6-2.7
		c-0.3-0.3-0.5-0.5-0.5-0.7s0-0.3,0-0.5V14.6c0-0.3,0-0.5,0.2-0.7s0.2-0.3,0.3-0.7l2.7-2.7c0.2-0.2,0.3-0.3,0.5-0.3
		c0.2-0.2,0.5-0.2,0.9-0.2h12.8c0.2,0,0.3,0,0.5,0s0.3,0.2,0.7,0.5l2.7,2.7c0.3,0.3,0.3,0.5,0.5,0.7c0,0.2,0,0.3,0,0.5v5.3
		c0,0.2,0,0.3-0.2,0.5s-0.3,0.2-0.5,0.2h-5.8c-0.2,0-0.3,0-0.5-0.2s-0.2-0.3-0.2-0.5v-1.1c0-0.2,0-0.2-0.2-0.3l-0.9-0.9
		c0-0.2-0.2-0.2-0.3-0.2h-4.8c-0.2,0-0.2,0-0.3,0.2l-0.9,0.9c0,0.2-0.2,0.3-0.2,0.5v17.4c0,0.2,0,0.3,0.2,0.3l0.7,0.7h5.8l0.7-0.7
		c0.2-0.2,0.2-0.2,0.2-0.3v-4.3h-3.3c-0.2,0-0.3,0-0.5-0.2s-0.2-0.3-0.2-0.5v-6c0-0.5,0.2-0.7,0.7-0.7h9.8c0.2,0,0.3,0,0.5,0.2
		s0.2,0.3,0.2,0.5v14.9c0,0.2,0,0.3-0.2,0.5s-0.2,0.3-0.3,0.5L158.5,44.1z"/>
	<path class="st1" d="M184.3,44.1c-0.2,0.2-0.5,0.3-0.5,0.3c-0.2,0-0.3,0-0.5,0h-12.7c-0.3,0-0.5,0-0.7-0.2s-0.3-0.2-0.5-0.3
		l-2.7-2.7c-0.3-0.3-0.3-0.5-0.5-0.7c0-0.2,0-0.3,0-0.5v-5.1c0-0.2,0-0.3,0.2-0.5s0.3-0.2,0.5-0.2h5.8c0.5,0,0.7,0.2,0.7,0.7v2.4
		h6.2l0.7-0.7c0.2,0,0.2-0.2,0.2-0.3v-3.9v-0.2c0,0,0-0.2-0.2-0.2l-0.9-0.7c-0.2-0.2-0.2-0.2-0.3-0.2H174v-7.4h5.6l0.7-0.7
		c0.2-0.2,0.2-0.2,0.2-0.3v-4.1c0-0.2,0-0.3-0.2-0.3l-0.9-0.9c-0.2-0.2-0.2-0.2-0.3-0.2h-5.8v2.6c0,0.5-0.2,0.7-0.7,0.7h-5.8
		c-0.2,0-0.3,0-0.5-0.2s-0.2-0.3-0.2-0.5v-5.2c0-0.2,0-0.3,0-0.5s0.2-0.5,0.5-0.9l2.7-2.7c0.3-0.3,0.7-0.5,1.4-0.5h12.4
		c0.2,0,0.3,0,0.7,0c0.2,0,0.5,0.2,0.7,0.3l2.7,2.7c0.3,0.3,0.3,0.5,0.5,0.7c0,0.2,0,0.3,0,0.5v9.9c0,0.2,0,0.3,0,0.5
		s-0.2,0.5-0.5,0.7l-1.9,2.1l1.9,2.1c0.2,0.2,0.3,0.3,0.3,0.5c0.2,0.2,0.2,0.3,0.2,0.5v9.4c0,0.2,0,0.3,0,0.5s-0.2,0.5-0.5,0.7
		L184.3,44.1z"/>
	<path class="st1" d="M210.3,44.1c-0.3,0.3-0.7,0.5-1.2,0.5h-12.8c-0.2,0-0.3,0-0.5-0.2s-0.3-0.2-0.3-0.3l-2.7-2.7
		c-0.3-0.3-0.5-0.9-0.5-1.4V14.6c0-0.5,0.2-1,0.5-1.4l2.7-2.7c0.2-0.2,0.3-0.3,0.5-0.3s0.5-0.2,0.7-0.2h12.4c0.3,0,0.5,0,0.7,0.2
		c0.2,0,0.3,0.2,0.5,0.3l2.7,2.7c0.3,0.3,0.3,0.5,0.5,0.9c0,0.2,0,0.3,0,0.5v5.1c0,0.5-0.2,0.7-0.7,0.7h-5.7c-0.5,0-0.7-0.2-0.7-0.7
		v-2.5h-5.6c-0.2,0-0.3,0-0.5,0.2l-0.9,0.7c-0.2,0.2-0.2,0.3-0.2,0.5v3.9c0,0.2,0,0.2,0.2,0.3l0.7,0.7h8.9c0.2,0,0.5,0,0.5,0
		s0.3,0.2,0.7,0.5l2.7,2.7c0.3,0.3,0.3,0.5,0.5,0.9c0,0.2,0,0.3,0,0.5v11.8c0,0.2,0,0.3,0,0.5s-0.2,0.5-0.5,0.7L210.3,44.1z
		 M206.2,36.5c0.2-0.2,0.2-0.2,0.2-0.3v-4.1c0-0.2,0-0.2-0.2-0.3l-1-1h-4.6c-0.2,0-0.2,0-0.3,0.2l-0.9,0.9c-0.2,0.2-0.2,0.2-0.2,0.3
		v3.9c0,0.2,0,0.2,0.2,0.3l0.7,0.5h5.5L206.2,36.5z"/>
	<path class="st1" d="M236.9,44.1c-0.3,0.3-0.7,0.5-1.4,0.5h-12.7c-0.2,0-0.3,0-0.7,0c-0.2,0-0.5-0.2-0.7-0.3l-2.7-2.7
		c-0.2-0.2-0.3-0.5-0.3-0.7s0-0.3,0-0.7v-5.3c0-0.5,0.2-0.7,0.7-0.7h5.8c0.5,0,0.7,0.2,0.7,0.7v2.4h6.2c0,0,0.2,0,0.3-0.2l0.9-0.9
		c0.2,0,0.2-0.2,0.2-0.3v-4.8c0-0.2,0-0.3-0.2-0.5l-0.7-0.7h-9.2c-0.5,0-1-0.2-1.4-0.5l-2.7-2.7c-0.2-0.2-0.3-0.5-0.3-0.7
		s0-0.3,0-0.7V10.7c0-0.2,0-0.3,0.2-0.5s0.3-0.2,0.5-0.2h20.5c0.2,0,0.3,0,0.5,0.2s0.2,0.3,0.2,0.5v5.8c0,0.2,0,0.3-0.2,0.5
		s-0.3,0.2-0.5,0.2h-14v3.9c0,0.2,0,0.3,0.2,0.5l0.7,0.7c0.2,0.2,0.3,0.2,0.5,0.2h8.7c0.5,0,0.9,0.2,1.4,0.5l2.7,2.7
		c0.3,0.3,0.3,0.5,0.5,0.7c0,0.2,0,0.3,0,0.7v12.8c0,0.5-0.2,0.9-0.5,1.4L236.9,44.1z"/>
	<path class="st0" d="M277.2,44.5c-0.4,0-0.6-0.2-0.7-0.7L273,31.3l-0.3-2.5l-0.3,2.5l-3.9,12.5c-0.2,0.5-0.4,0.7-0.7,0.7h-6.2
		c-0.2,0-0.3-0.1-0.4-0.2c-0.1-0.2-0.2-0.3-0.2-0.5l-2.6-33.3c0-0.2,0-0.3,0.2-0.5s0.3-0.2,0.5-0.2h5.9c0.2,0,0.4,0.1,0.5,0.2
		s0.2,0.3,0.2,0.5l1.2,17l2.8-7.9c0.1-0.2,0.2-0.3,0.3-0.5c0.2-0.2,0.3-0.2,0.5-0.2h4c0.5,0,0.8,0.2,0.9,0.7l2.8,7.9l1.2-17
		c0-0.2,0.1-0.3,0.2-0.5c0.1-0.1,0.3-0.2,0.5-0.2h5.9c0.2,0,0.3,0.1,0.5,0.2s0.2,0.3,0.2,0.5l-2.6,33.3c0,0.2-0.1,0.3-0.2,0.5
		c-0.1,0.1-0.3,0.2-0.6,0.2H277.2z"/>
	<path class="st0" d="M309.3,43.9c-0.4,0.4-0.7,0.5-1.1,0.5h-13c-0.3,0-0.5,0-0.7-0.1s-0.4-0.2-0.6-0.4l-2.8-2.8
		c-0.4-0.4-0.5-0.8-0.5-1.3V14.4c0-0.2,0-0.4,0.1-0.7c0.1-0.2,0.2-0.5,0.4-0.6l2.8-2.8c0.2-0.2,0.5-0.4,0.7-0.4
		c0.2-0.1,0.4-0.1,0.6-0.1H308c0.3,0,0.5,0,0.6,0.1c0.1,0,0.4,0.2,0.7,0.5l2.8,2.8c0.1,0.1,0.2,0.3,0.3,0.5c0.1,0.2,0.1,0.5,0.1,0.8
		V40c0,0.2,0,0.4-0.1,0.6s-0.2,0.5-0.4,0.7L309.3,43.9z M305.1,36.5c0.1-0.1,0.1-0.2,0.1-0.3V18.4c0-0.2,0-0.3-0.1-0.4l-0.8-0.8
		c-0.1-0.1-0.2-0.1-0.3-0.1h-4.8c-0.1,0-0.2,0-0.3,0.1l-0.8,0.8c-0.1,0.1-0.1,0.2-0.1,0.4v17.7c0,0.1,0,0.2,0.1,0.3l0.7,0.7h5.8
		L305.1,36.5z"/>
	<path class="st0" d="M332.4,44.5c-0.2,0-0.4-0.1-0.5-0.2c-0.2-0.1-0.3-0.3-0.3-0.5l-4.9-12.2h-2.3v12.1c0,0.2-0.1,0.3-0.2,0.5
		c-0.1,0.1-0.3,0.2-0.5,0.2h-5.9c-0.2,0-0.3-0.1-0.5-0.2c-0.1-0.1-0.2-0.3-0.2-0.5V10.4c0-0.2,0.1-0.4,0.2-0.5s0.3-0.2,0.5-0.2h15.8
		c0.5,0,1,0.2,1.3,0.5l2.8,2.8c0.3,0.3,0.5,0.6,0.5,0.8s0,0.4,0,0.6v12.5c0,0.3,0,0.6-0.1,0.7c-0.1,0.2-0.2,0.3-0.4,0.5l-3,2.9
		l5.1,12.5c0.1,0.2,0.1,0.3,0,0.5c-0.1,0.1-0.2,0.2-0.5,0.2h-6.9V44.5z M330.7,23.4c0.1-0.1,0.1-0.2,0.1-0.4v-4.5
		c0-0.2,0-0.4-0.1-0.5l-0.7-0.7c-0.1-0.1-0.2-0.2-0.3-0.2c-0.1,0-0.2,0-0.3,0h-5v7.3h5.2c0.1,0,0.2,0,0.3-0.1L330.7,23.4z"/>
	<path class="st0" d="M360.3,44.5c-0.2,0-0.4-0.1-0.5-0.2c-0.2-0.1-0.3-0.3-0.3-0.5L353.4,30l-2.6,3.6v10.2c0,0.5-0.2,0.7-0.7,0.7
		h-6c-0.5,0-0.7-0.2-0.7-0.7V10.4c0-0.2,0.1-0.3,0.2-0.5c0.1-0.1,0.3-0.2,0.5-0.2h5.9c0.2,0,0.4,0.1,0.5,0.2
		c0.1,0.1,0.2,0.3,0.2,0.5v10.8l7.4-10.8c0.1-0.2,0.3-0.3,0.4-0.5c0.1-0.1,0.3-0.2,0.5-0.2h7.5c0.3,0,0.5,0.1,0.7,0.3s0.2,0.4,0,0.6
		L358,23.3l9.6,20.1c0.1,0.3,0.1,0.5-0.1,0.6c-0.2,0.2-0.4,0.2-0.6,0.2h-6.6L360.3,44.5L360.3,44.5z"/>
	<path class="st0" d="M389,43.9c-0.4,0.4-0.7,0.5-1.1,0.5h-13c-0.3,0-0.5,0-0.7-0.1s-0.4-0.2-0.6-0.4l-2.8-2.8
		c-0.4-0.4-0.5-0.8-0.5-1.3V14.4c0-0.2,0-0.4,0.1-0.7c0.1-0.2,0.2-0.5,0.4-0.6l2.8-2.8c0.2-0.2,0.5-0.4,0.7-0.4
		c0.2-0.1,0.4-0.1,0.6-0.1h12.8c0.3,0,0.5,0,0.6,0.1c0.1,0,0.4,0.2,0.7,0.5l2.8,2.8c0.1,0.1,0.2,0.3,0.3,0.5
		c0.1,0.2,0.1,0.5,0.1,0.8V40c0,0.2,0,0.4-0.1,0.6s-0.2,0.5-0.4,0.7L389,43.9z M384.9,36.5c0.1-0.1,0.1-0.2,0.1-0.3V18.4
		c0-0.2,0-0.3-0.1-0.4l-0.8-0.8c-0.1-0.1-0.2-0.1-0.3-0.1H379c-0.1,0-0.2,0-0.3,0.1l-0.8,0.8c-0.1,0.1-0.1,0.2-0.1,0.4v17.7
		c0,0.1,0,0.2,0.1,0.3l0.7,0.7h5.8L384.9,36.5z"/>
	<path class="st0" d="M415.5,43.9c-0.2,0.2-0.4,0.3-0.6,0.4c-0.2,0.1-0.4,0.1-0.7,0.1h-12.9c-0.3,0-0.5,0-0.7-0.1s-0.4-0.2-0.6-0.4
		l-2.8-2.8c-0.3-0.3-0.4-0.5-0.5-0.7c0-0.2-0.1-0.4-0.1-0.6V10.4c0-0.2,0.1-0.4,0.2-0.5s0.3-0.2,0.5-0.2h5.9c0.5,0,0.7,0.2,0.7,0.7
		v25.7c0,0.1,0,0.2,0,0.2l0.1,0.1l0.7,0.7h5.8l0.7-0.7c0.1-0.1,0.2-0.3,0.2-0.4V10.4c0-0.5,0.2-0.7,0.7-0.7h5.9
		c0.5,0,0.7,0.2,0.7,0.7v29.4c0,0.5-0.2,1-0.5,1.3L415.5,43.9z"/>
	<path class="st0" d="M430.2,44.5c-0.2,0-0.3-0.1-0.5-0.2c-0.1-0.1-0.2-0.3-0.2-0.4V17.1h-6.3c-0.2,0-0.4-0.1-0.5-0.2
		s-0.2-0.3-0.2-0.5v-5.9c0-0.2,0.1-0.4,0.2-0.5s0.3-0.2,0.5-0.2h19.9c0.2,0,0.4,0.1,0.5,0.2c0.1,0.1,0.2,0.3,0.2,0.5v5.9
		c0,0.2-0.1,0.4-0.2,0.5s-0.3,0.2-0.5,0.2h-6.3v26.8c0,0.2-0.1,0.3-0.2,0.4c-0.1,0.1-0.3,0.2-0.5,0.2
		C436.1,44.5,430.2,44.5,430.2,44.5z"/>
	<path class="st0" d="M466.1,43.9c-0.2,0.2-0.4,0.3-0.6,0.4c-0.3,0.1-0.5,0.1-0.6,0.1H452c-0.5,0-0.9-0.2-1.3-0.5l-2.8-2.8
		c-0.2-0.2-0.3-0.4-0.4-0.6c-0.1-0.3-0.1-0.5-0.1-0.7V35c0-0.2,0.1-0.4,0.2-0.5s0.3-0.2,0.5-0.2h5.9c0.5,0,0.7,0.2,0.7,0.7v2.2h6.3
		c0.1,0,0.1,0,0.2-0.1l0.8-0.8c0.1-0.1,0.1-0.2,0.1-0.3v-3.8c0-0.2-0.1-0.4-0.2-0.5l-0.7-0.7c-0.1-0.1-0.2-0.1-0.2-0.1h-9
		c-0.5,0-0.9-0.2-1.3-0.5l-2.8-2.8c-0.2-0.2-0.3-0.3-0.4-0.5s-0.1-0.4-0.1-0.7v-12c0-0.5,0.2-0.9,0.5-1.3l2.8-2.8
		c0.3-0.3,0.5-0.4,0.7-0.5c0.2,0,0.4-0.1,0.6-0.1h12.9c0.3,0,0.5,0,0.7,0.1s0.4,0.2,0.6,0.4L469,13c0.4,0.4,0.5,0.8,0.5,1.3v5.3
		c0,0.2-0.1,0.4-0.2,0.5s-0.3,0.2-0.5,0.2h-5.9c-0.5,0-0.7-0.2-0.7-0.7v-2.5H456c-0.1,0-0.2,0-0.3,0.1l-0.8,0.8
		c-0.1,0.1-0.2,0.3-0.2,0.4v4c0,0.1,0.1,0.2,0.2,0.3l0.7,0.7h9.3c0.4,0,0.6,0,0.7,0.1s0.3,0.2,0.5,0.4l2.8,2.8
		c0.3,0.3,0.4,0.5,0.5,0.7c0,0.2,0.1,0.4,0.1,0.6v11.8c0,0.2,0,0.4-0.1,0.6s-0.2,0.5-0.4,0.7L466.1,43.9z"/>
</g>
<path class="st0" d="M0.1,54.4h469.5v-5H0.1V54.4z M0.1,0v5h469.5V0H0.1z"/>
</svg>
